<svg xmlns="http://www.w3.org/2000/svg" width="64" height="64" fill="none" viewBox="0 0 64 64">
  <rect width="64" height="64" rx="20" fill="#06080D" />
  <rect x="4" y="4" width="56" height="56" rx="16" fill="url(#a)" fill-opacity=".16" stroke="rgba(255,255,255,.12)" />
  <path
    fill="#F4F7FB"
    d="M18 18h16.8c7.7 0 12.2 3.8 12.2 10.3 0 4.7-2.7 8.1-7.1 9.4l7.8 8.3H38.7l-6.5-7.2H26v7.2h-8V18Zm8 14.4h7.9c3.4 0 5.2-1.3 5.2-3.8 0-2.6-1.8-3.9-5.2-3.9H26v7.7Z"
  />
  <path fill="#4F8CFF" d="M18 46V18h8v28z" />
  <defs>
    <linearGradient id="a" x1="10" x2="52" y1="8" y2="58" gradientUnits="userSpaceOnUse">
      <stop stop-color="#4F8CFF" />
      <stop offset="1" stop-color="#FF7A18" />
    </linearGradient>
  </defs>
</svg>